<svg xmlns="http://www.w3.org/2000/svg" xmlns:xlink="http://www.w3.org/1999/xlink" viewBox="0 0 76.88 76.88"><defs><style>.cls-1{fill:url(#未命名漸層_145);}.cls-2{fill:url(#未命名漸層_168);}.cls-3{fill:url(#未命名漸層_161);}</style><linearGradient id="未命名漸層_145" x1="56.87" y1="17.67" x2="28.99" y2="37.21" gradientUnits="userSpaceOnUse"><stop offset="0" stop-color="#f5bf1d"/><stop offset="1" stop-color="#a2c629"/></linearGradient><linearGradient id="未命名漸層_168" x1="21.43" y1="54.81" x2="40.44" y2="38.4" gradientUnits="userSpaceOnUse"><stop offset="0" stop-color="#db1879"/><stop offset="1" stop-color="#9b1584"/></linearGradient><linearGradient id="未命名漸層_161" x1="7.1" y1="70.04" x2="69.1" y2="7.53" gradientUnits="userSpaceOnUse"><stop offset="0.18" stop-color="#dc1877"/><stop offset="0.38" stop-color="#dd1a4a"/><stop offset="0.61" stop-color="#eb731a"/><stop offset="0.81" stop-color="#f5bd1d"/></linearGradient></defs><g id="圖層_2" data-name="圖層 2"><g id="圖層_1-2" data-name="圖層 1"><path class="cls-1" d="M69.24,7.64A26.16,26.16,0,0,0,39.49,2.55,8.64,8.64,0,0,0,33.34,0h0a8.71,8.71,0,0,0-8.7,8.7V35a8.7,8.7,0,0,0,6.54,8.43c.35.4.72.8,1.1,1.18a26.13,26.13,0,0,0,37-37ZM56.92,32.28a8.71,8.71,0,1,1,0-12.32A8.72,8.72,0,0,1,56.92,32.28Z"/><path class="cls-2" d="M44.6,32.28a26.17,26.17,0,1,0,7.64,18.48h0A26,26,0,0,0,44.6,32.28ZM20,56.92A8.71,8.71,0,0,1,30.3,43.12a8.68,8.68,0,0,0-4.55,7.64h0a8.71,8.71,0,0,0,4.55,7.65A8.73,8.73,0,0,1,20,56.92Z"/><path class="cls-3" d="M56.92,20A8.71,8.71,0,1,1,44.6,32.28a26.13,26.13,0,0,0-37,37L20,56.92A8.71,8.71,0,0,1,32.28,44.6a26.13,26.13,0,0,0,37-37Z"/></g></g></svg>